<svg xmlns="http://www.w3.org/2000/svg" width="104" height="50" viewBox="0 0 104 50">
  <path id="Path_13007" data-name="Path 13007" d="M56.769,47.4a2.262,2.262,0,0,0-1.133-.569,2.026,2.026,0,0,1-1.221-.869,2.712,2.712,0,0,1-.194-.329,8.356,8.356,0,0,1-.743-2.358,17.632,17.632,0,0,1-.239-3.016c0-1.089.025-2.153.065-3.186s.1-1.963.154-2.792a14.513,14.513,0,0,0,.045-1.9,1.523,1.523,0,0,0-.125-.469,2.472,2.472,0,0,0-.314-.514,4.068,4.068,0,0,0-1-.894,6.883,6.883,0,0,0-1.307-.654,3.371,3.371,0,0,0-1.306-.24,1.645,1.645,0,0,0-1.027.369,1.548,1.548,0,0,0-.459,1.139c-.03.435-.065,1.044-.109,1.833s-.13,1.629-.259,2.531-.3,1.829-.5,2.772a12.032,12.032,0,0,1-.827,2.557,6.76,6.76,0,0,1-1.242,1.879,2.31,2.31,0,0,1-1.72.739,1.2,1.2,0,0,1-1-.535l0-.005a2.271,2.271,0,0,1-.135-.2,5.933,5.933,0,0,1-.653-1.9,21.358,21.358,0,0,1-.3-2.552c-.059-.934-.084-1.828-.084-2.687s.01-1.639.039-2.337.06-1.194.09-1.483a1.625,1.625,0,0,0-.085-.645A1.042,1.042,0,0,0,40.6,30.5a3.849,3.849,0,0,0-1.591-.285,6.211,6.211,0,0,0-1.725.285,3.58,3.58,0,0,0-1.087.479,2.155,2.155,0,0,0-.394.963,12.273,12.273,0,0,0-.264,1.788c-.055.7-.084,1.458-.084,2.272a23.752,23.752,0,0,0,.129,2.447,22.528,22.528,0,0,0,.479,3.031,10.167,10.167,0,0,0,1.072,2.772.95.95,0,0,0,.079.13c-.064.066-.124.135-.189.2a5.253,5.253,0,0,1-2.248,1.308,4.236,4.236,0,0,1-2.329.011c-.109-.025-.219-.06-.329-.095a4.987,4.987,0,0,1-2.507-2.292A9.936,9.936,0,0,1,28.785,42a6.061,6.061,0,0,1-.349-1.068,3.233,3.233,0,0,1-.13-.784,33.047,33.047,0,0,0,3.659-5.069q.7-1.176,1.4-2.617a33.039,33.039,0,0,0,1.286-3.056A32.9,32.9,0,0,0,35.675,26a25.333,25.333,0,0,0,.608-3.755,6.656,6.656,0,0,0-.3-3.605,5.647,5.647,0,0,0-1.1-1.648,3.39,3.39,0,0,0-.384-.335,5.466,5.466,0,0,0-2.487-1.009,5.522,5.522,0,0,0-3.421.615,8.028,8.028,0,0,0-2.528,2.272,13.747,13.747,0,0,0-1.79,3.316,27.661,27.661,0,0,0-1.151,3.8q-.4,1.835-.678,4.3a37.45,37.45,0,0,0-.219,5.129,33.05,33.05,0,0,0,.548,5.264,15.183,15.183,0,0,0,1.611,4.649,10.212,10.212,0,0,0,1.236,1.773,9.479,9.479,0,0,0,1.75,1.588,8.036,8.036,0,0,0,4.642,1.353,6.091,6.091,0,0,0,2.029-.24,7.409,7.409,0,0,0,1.72-.764,9,9,0,0,0,2.573-2.356c.08-.1.149-.215.224-.32a5.465,5.465,0,0,0,.453.384,6.146,6.146,0,0,0,2.942,1.159,4.237,4.237,0,0,0,3.026-.545,7.182,7.182,0,0,0,2.029-1.943,10.825,10.825,0,0,0,1.481-3.016c.02.234.05.469.085.694a8.017,8.017,0,0,0,.658,2.187,7.372,7.372,0,0,0,1.611,2.187,5.8,5.8,0,0,0,3.1,1.393,4.94,4.94,0,0,0,1.939.045,1.684,1.684,0,0,0,.963-.5.5.5,0,0,0-.07-.679M32.538,19.045a1.229,1.229,0,0,1,.3.384,3.285,3.285,0,0,1,.329,1.439,10.738,10.738,0,0,1-.13,1.858q-.157,1-.329,1.963a21.52,21.52,0,0,1-1.132,4c-.523,1.354-1.062,2.6-1.615,3.736Q29,34.427,27.872,36.3v-.01c-.12-1.274-.19-2.617-.219-4.006s0-2.762.085-4.084a36.474,36.474,0,0,1,.438-3.755,15.708,15.708,0,0,1,.808-3.056A5.678,5.678,0,0,1,30.2,19.384a1.984,1.984,0,0,1,1.635-.634,1.284,1.284,0,0,1,.7.295m34.954,7.436a.263.263,0,0,1-.005.065,1.287,1.287,0,0,1-.758.984,8.763,8.763,0,0,1-1.72.739,22.892,22.892,0,0,1-2.528.615q.089,2.921.175,5.673.043,2.4.019,5.024t-.194,4.584a8.944,8.944,0,0,1-.678,2.881,2.4,2.4,0,0,1-1.022,1.179,1.742,1.742,0,0,1-1.177.11,7.482,7.482,0,0,1-1.132-.37.221.221,0,0,1-.1-.064,1.791,1.791,0,0,1-.384-.854,14.71,14.71,0,0,1-.349-2.138c-.085-.874-.16-1.858-.215-2.951s-.1-2.2-.135-3.336q-.12-3.829-.13-8.515v-.484a10.055,10.055,0,0,1-2.178.265,4.481,4.481,0,0,1-1.615-.285,1.456,1.456,0,0,1-.484-.295,1.409,1.409,0,0,1-.429-.774A1.042,1.042,0,0,1,53,27.44a7.47,7.47,0,0,1,1.551-.83,16.824,16.824,0,0,1,2.354-.7v-.7c0-.2,0-.414.02-.634s.02-.4.02-.545c0-1.163-.015-2.108-.039-2.836s-.045-1.333-.045-1.813.015-.874.045-1.179a5.924,5.924,0,0,1,.174-.984.953.953,0,0,1,.913-.874,3,3,0,0,1,1.66.35,5.632,5.632,0,0,1,1.6,1.228.169.169,0,0,0,.015.016,2.741,2.741,0,0,1,.783,1.773c.03.669.06,1.353.09,2.048s.06,1.328.084,1.877c.029.674.06,1.3.089,1.878.11-.011.214-.02.32-.025a20.57,20.57,0,0,1,2.293-.06,8.085,8.085,0,0,1,1.79.259c.523.15.783.41.783.789m14.582,4.649a1.114,1.114,0,0,1-.024.174,1.893,1.893,0,0,1-.325.72,4.057,4.057,0,0,1-.892.918,3.394,3.394,0,0,1-1.351.609,4.582,4.582,0,0,0-2.417,1.313,6.621,6.621,0,0,0-1.377,2.247,10.478,10.478,0,0,0-.608,2.752q-.135,1.46-.135,2.817a8.084,8.084,0,0,1-.783,4.21,2.709,2.709,0,0,1-2.223,1.463,2.278,2.278,0,0,1-1.815-.649,3.117,3.117,0,0,1-.583-.834,12.912,12.912,0,0,1-.783-5.328q.045-2.352.045-4.1a27,27,0,0,0-.135-2.947,8.037,8.037,0,0,0-.234-1.313,3.652,3.652,0,0,0-.2-.584,2.008,2.008,0,0,0-.872-1,2.313,2.313,0,0,0-.872-.3,6.224,6.224,0,0,0-.718-.045c-.055,0-.11,0-.16,0H65.6a2.172,2.172,0,0,1-.4-.06.737.737,0,0,1-.413-.414c-.085-.205.049-.48.413-.829a4.259,4.259,0,0,1,1.461-.874,4.856,4.856,0,0,1,2.049-.284,3.826,3.826,0,0,1,2.178.894c.09.075.175.15.255.22A12.492,12.492,0,0,1,72.4,31.175a12.061,12.061,0,0,1,.937,1.289,5.545,5.545,0,0,1,.568,1.263c.055-.055.115-.11.17-.165a14.315,14.315,0,0,1,2.359-1.8,11.227,11.227,0,0,1,2.527-1.139,4.791,4.791,0,0,1,2.792-.04.493.493,0,0,1,.323.545m21.907,10.587a6.646,6.646,0,0,1-.653,2.163,9.527,9.527,0,0,1-1.68,2.4,7.394,7.394,0,0,1-2.856,1.858,4.853,4.853,0,0,1-1.7.349,4.337,4.337,0,0,1-1.417-.22,3.5,3.5,0,0,1-1.112-.614,4.412,4.412,0,0,1-.423-.385c-.155-.15-.3-.315-.449-.484A8.272,8.272,0,0,1,92.42,44.44v-.005c-.044-.115-.084-.234-.125-.355a5.709,5.709,0,0,1-1.217,1.832,7.213,7.213,0,0,1-1.7,1.289,5.89,5.89,0,0,1-2.572.674,4.506,4.506,0,0,1-2.877-.959,6.577,6.577,0,0,1-1.44-1.478,7.771,7.771,0,0,1-.719-1.229,9.832,9.832,0,0,1-.872-3.955,11.316,11.316,0,0,1,.982-4.734,8.719,8.719,0,0,1,1.83-2.752,10.908,10.908,0,0,1,2.418-1.857,10.726,10.726,0,0,1,2.573-1.05,11.782,11.782,0,0,1,2.308-.369,4.9,4.9,0,0,1,1.661.155c.418.13.6.31.543.545a.638.638,0,0,1-.04.129,1.511,1.511,0,0,1-.7.809c-.4.25-.873.5-1.391.764s-1.062.554-1.615.874a4.518,4.518,0,0,0-1.4,1.264,8.165,8.165,0,0,0-1.221,3.016,16.1,16.1,0,0,0-.324,3.342,9.467,9.467,0,0,0,.394,2.752c.244.769.558,1.153.937,1.153a1.74,1.74,0,0,0,.354-.04,2.614,2.614,0,0,0,1.1-.614,8.464,8.464,0,0,0,1.376-1.508,9.565,9.565,0,0,0,1-1.743,3.875,3.875,0,0,0,.394-1.379c0-.32-.015-.764-.045-1.329A13.462,13.462,0,0,1,92.057,36a6.571,6.571,0,0,1,.264-1.443c.13-.4.354-.624.673-.655a7.052,7.052,0,0,0,1.157-.219,2.755,2.755,0,0,1,1.286-.039,1.279,1.279,0,0,1,.724.454,2.2,2.2,0,0,1,.259.395,5.294,5.294,0,0,1,.279,2.467,19.592,19.592,0,0,0,.349,5.349,3.182,3.182,0,0,0,.942,1.663,2.1,2.1,0,0,0,.933.455,2.015,2.015,0,0,0,1.725-.455,9.071,9.071,0,0,0,1.371-1.424q.612-.779,1.047-1.418c.274-.4.5-.569.668-.509a.066.066,0,0,1,.03.01c.205.085.274.45.219,1.089M76.17,0c-.4-.056-.9.834-1.116,1.557a4.249,4.249,0,0,0,.353,2.888c1.173,2.8,2.134,3.4,2.882,5.053,1.54,3.369.2,6.723.622,6.794.282.042.8-1.358,1.031-2.647a10.619,10.619,0,0,0-.593-5.322C78.5,5.934,77.808,6.118,77.13,3.84,76.467,1.673,76.678.088,76.17,0m-3.843,19.35c-.3.368-3.279-.665-4.622-3.072a7.1,7.1,0,0,1-.679-3.709,17.365,17.365,0,0,1,2.007-8c.918-1.812,2.5-4.232,3.179-4.006.283.1.227.552.523,1.458a9.19,9.19,0,0,0,1.5,2.632,29.984,29.984,0,0,1,3.138,5.308,11.348,11.348,0,0,1,.268,7.956c-.692,1.755-1.908,3.213-2.163,3.1-.226-.113.382-1.317.664-3.27a10.931,10.931,0,0,0-.311-5.492c-.4-1.061-1.313-2.18-3.165-4.431-1.3-1.6-1.555-1.684-1.766-1.671-1.427.1-3.236,4.728-1.907,8.536,1.045,2.986,3.617,4.289,3.335,4.657m3.038,3.468a9.648,9.648,0,0,1,2.176-1.613,8.059,8.059,0,0,1,4.38-.948c.608.056,2.361.2,2.6,1.032.156.524-.381,1.1-.734,1.487a5.417,5.417,0,0,1-2.954,1.5,14.483,14.483,0,0,1-3.306-.042,4.107,4.107,0,0,0,2.826.921,7.465,7.465,0,0,0,4.791-2.194,18.8,18.8,0,0,0,1.54-1.614c.763-.849.89-1.047.848-1.259-.029-.113-.17-.624-2.332-.963a10.634,10.634,0,0,0-4.818-.014,9.3,9.3,0,0,0-5.017,3.708m7.15,3.072h0c-.005-.029-.048-.04-.123-.037h-.007c-.023,0-.05,0-.079.007h0l-.036,0-.015,0h0l-.02,0-.021,0H82.2l-.01,0-.022,0-.023,0h-.007l-.04.007-.025,0h0l-.024,0-.026.005-.022,0h-.005l-.028,0-.028.006-.016,0-.012,0-.03.006-.03.005-.01,0-.021,0-.031.006-.031.006h0l-.03.006-.033.006-.028.005h-.005l-.034.007-.034.007-.021,0-.014,0-.036.007-.036.007-.013,0-.025.005-.037.007-.041.008-.035.006-.039.008-.12.023-.025,0-.016,0-.083.015-.016,0a11.45,11.45,0,0,1-5.96-.312l-.026-.01-.154-.059-.044-.018-.135-.056-.021-.008-.016-.007-.151-.068-.035-.016-.16-.076-.068-.034-.07-.035-.07-.037-.071-.038-.072-.039-.073-.04h0l-.074-.042-.074-.043h0l-.075-.044h0l-.076-.045h0l-.077-.047h0l-.077-.047-.077-.049h0l-.078-.05-.078-.051h0l-.079-.053-.08-.053h0l-.08-.055h0L72.9,24.6h0l-.081-.057h0l-.081-.058h0l-.081-.059h0l-.081-.061h0l-.082-.062h0l-.082-.063h0l-.083-.064-.083-.065-.083-.066h0l-.083-.067h0L72,23.914l-.083-.07h0l-.083-.07h0l-.083-.072-.083-.072-.084-.074-.083-.074h0l-.083-.076-.083-.076h0l-.083-.078h0l-.083-.079-.083-.079L71,23.012h0l-.082-.082h0l-.082-.083-.082-.084h0l-.081-.085h0l-.081-.086h0l-.081-.086h0l-.081-.088-.08-.089h0l-.159-.18c-.106-.12-.211-.244-.313-.37h0q-.309-.378-.6-.785l-.023-.032c-.436-.624-.846-1.313-1.25-1.884l-.026-.037c-.518-.733-1.024-1.267-1.556-1.188a.854.854,0,0,0-.608.41c-.085.156-.3.708.947,2.18,5.484,6.426,10.655,6.582,10.655,6.582C80.3,27.124,82.557,26.077,82.515,25.893ZM30.041,13.971a3,3,0,0,1-1.531.384,13.688,13.688,0,0,1-2.234-.145c-.843-.12-1.646-.255-2.413-.414s-1.436-.315-2.024-.47-.963-.255-1.117-.295a7.857,7.857,0,0,0-4.058-.295,4.764,4.764,0,0,0-2.528,1.528,7.082,7.082,0,0,0-1.381,2.682,17.218,17.218,0,0,0-.588,3.091,23.794,23.794,0,0,0-.12,2.857,18.793,18.793,0,0,1-.031,1.973c.19-.02.449-.025.768-.025.409.005.932.02,1.555.055a24.683,24.683,0,0,1,3.381.415,13.876,13.876,0,0,1,2.971.879,2.5,2.5,0,0,1,.872.584.948.948,0,0,1,.274.8c0,.195-.434.39-1.3.59s-1.839.379-2.942.559-2.163.329-3.2.47-1.755.224-2.148.265a14.188,14.188,0,0,0,0,3.211q.179,2.322.617,5.184t1.117,5.828a33.516,33.516,0,0,0,1.56,5.154A1.216,1.216,0,0,1,14.4,49.987a4.609,4.609,0,0,1-2.179-.414,8.934,8.934,0,0,1-2.349-1.468q-.329-.278-.613-.569A5.839,5.839,0,0,1,8.2,46.012a12.875,12.875,0,0,1-.853-2.326A29.284,29.284,0,0,1,6.7,40.8c-.179-1-.334-1.983-.473-2.942S6,36.059,5.96,35.35c-.2-1.883-.3-3.326-.32-4.325a3.95,3.95,0,0,0-.109-.924c-.109-.384-.3-.579-.568-.579a7.56,7.56,0,0,1-1.88-.325,8.28,8.28,0,0,1-2.029-.824A3.727,3.727,0,0,1,.521,28a1.542,1.542,0,0,1-.5-.664c-.115-.35.215-.684,1-1,.664-.12,1.351-.234,2.059-.354s1.411-.255,2.114-.409c.194-1.139.394-2.4.588-3.771s.414-2.631.648-3.771a14.729,14.729,0,0,1,2.084-4.828,11.391,11.391,0,0,1,3.236-3.181,11,11,0,0,1,4.059-1.558,14.574,14.574,0,0,1,4.617-.031c.548.08,1.321.245,2.318.5a28.279,28.279,0,0,1,3.061.974,20.158,20.158,0,0,1,2.852,1.323,5.557,5.557,0,0,1,1.2.879v0a2.433,2.433,0,0,1,.508.679.944.944,0,0,1-.324,1.174" transform="translate(0 -0.001)" fill="#0b266f"/>
</svg>
