<svg xmlns="http://www.w3.org/2000/svg" width="24.001" height="24" viewBox="0 0 24.001 24">
  <path id="instagram" d="M15,3c-3.259,0-3.667.014-4.947.072A8.831,8.831,0,0,0,7.14,3.63,6.133,6.133,0,0,0,3.63,7.14a8.848,8.848,0,0,0-.558,2.913C3.014,11.333,3,11.741,3,15s.014,3.667.072,4.947a8.831,8.831,0,0,0,.558,2.913,6.131,6.131,0,0,0,3.51,3.51,8.848,8.848,0,0,0,2.913.558c1.28.058,1.689.072,4.947.072s3.667-.014,4.947-.072a8.831,8.831,0,0,0,2.913-.558,6.131,6.131,0,0,0,3.51-3.51,8.848,8.848,0,0,0,.558-2.913C26.986,18.667,27,18.258,27,15s-.014-3.667-.072-4.947A8.831,8.831,0,0,0,26.37,7.14a6.131,6.131,0,0,0-3.51-3.51,8.848,8.848,0,0,0-2.913-.558C18.667,3.014,18.259,3,15,3m0,2.162c3.2,0,3.583.012,4.848.07a6.667,6.667,0,0,1,2.23.413,3.972,3.972,0,0,1,2.278,2.278,6.659,6.659,0,0,1,.413,2.228c.058,1.266.07,1.644.07,4.849s-.012,3.583-.07,4.848a6.709,6.709,0,0,1-.413,2.23,3.972,3.972,0,0,1-2.278,2.278,6.659,6.659,0,0,1-2.228.413c-1.265.058-1.644.07-4.849.07s-3.585-.012-4.848-.07a6.709,6.709,0,0,1-2.23-.413,3.972,3.972,0,0,1-2.278-2.278,6.618,6.618,0,0,1-.413-2.228c-.058-1.266-.07-1.644-.07-4.849s.012-3.583.07-4.848a6.667,6.667,0,0,1,.413-2.23A3.972,3.972,0,0,1,7.922,5.645a6.618,6.618,0,0,1,2.228-.413c1.266-.058,1.644-.07,4.849-.07M15,19a4,4,0,1,1,4-4,4,4,0,0,1-4,4M15,8.838A6.162,6.162,0,1,0,21.161,15,6.162,6.162,0,0,0,15,8.838M22.845,8.6a1.44,1.44,0,1,1-1.44-1.44,1.44,1.44,0,0,1,1.44,1.44" transform="translate(-3 -3)" fill="#0b266f" fill-rule="evenodd"/>
</svg>
