<svg xmlns="http://www.w3.org/2000/svg" width="38.611" height="38.63" viewBox="0 0 38.611 38.63">
  <g id="Group_35614" data-name="Group 35614" transform="translate(0.311 0.295)">
    <g id="Group_35615" data-name="Group 35615">
      <path id="Path_13393" data-name="Path 13393" d="M12.7,27.14c-1.174-.021-2.353.027-3.528,0-.178,0-.334-.077-.512-.082-1.976-.051-2.9.267-4.528-1.118C.56,22.919-.294,15.732.082,11.345.426,7.331,2.026,1.159,6.5.107c6.406-.039,12.815.053,19.221,0C27.383.1,29.093-.065,30.766.03c5.313.3,7,8.073,7.234,12.358l-.047,24.525L34.837,37.95l-1.614-.732L31.653,38l-1.57-.782-1.551.733-1.565-.733L25.346,38l-1.57-.782L22.156,38l-1.57-.782-1.551.733-1.565-.733-1.614.732L12.7,36.905ZM6.666,1.693c-1.183.2-2.353,1.584-2.934,2.573C.847,9.181.824,18.767,4.1,23.5,5.967,26.2,8.3,26.2,10.16,23.5c3.191-4.61,3.206-13.7.71-18.61-.776-1.528-2.252-3.525-4.205-3.2M36.365,12.8a17.762,17.762,0,0,0-.319-3.376c-.42-2.325-1.4-5.4-3.241-6.968a4.618,4.618,0,0,0-1.448-.782H10.619c.218.376.553.67.8,1.021,1.669,2.331,2.5,5.814,2.758,8.649l.073,1.457h2.56a1.759,1.759,0,0,1,.444.3.8.8,0,0,1,0,.967,1.194,1.194,0,0,1-.368.3H14.254v21.3a9.842,9.842,0,0,0,1.522.555l1.643-.8,1.551.733,1.615-.733,1.57.782,1.57-.782,1.62.782,1.57-.782,1.551.733,1.565-.733,1.62.782,1.57-.782,1.693.8a9.839,9.839,0,0,0,1.522-.555V14.482l-.111-.112h-2.6a1.938,1.938,0,0,1-.262-.2.815.815,0,0,1,.112-1.216,1.828,1.828,0,0,1,.3-.148ZM10.619,25.571h1.966l.111-.112V22.286l-1.082,1.936c-.21.285-.407.586-.626.864-.063.079-.46.4-.37.486" transform="translate(0 0)" fill="#0b266f" stroke="#0b266f" stroke-width="0.6"/>
      <path id="Path_13394" data-name="Path 13394" d="M197.93,136.991l5.171-.012a.8.8,0,0,1,.152,1.561H197.84a.8.8,0,0,1,.09-1.549" transform="translate(-178.947 -124.172)" fill="#0b266f" stroke="#0b266f" stroke-width="0.6"/>
      <path id="Path_13395" data-name="Path 13395" d="M278.225,136.967l5.249-.012a.794.794,0,0,1,.074,1.561h-5.336a.8.8,0,0,1,.012-1.549" transform="translate(-251.824 -124.15)" fill="#0b266f" stroke="#0b266f" stroke-width="0.6"/>
      <path id="Path_13396" data-name="Path 13396" d="M53.328,102.7c1.652-.12,2.382,2.217,2.467,3.528.091,1.407-.341,3.9-1.893,4.375-1.876.579-2.762-1.952-2.863-3.4-.1-1.5.411-4.37,2.289-4.506m.061,1.632c-.091.02-.289.307-.345.4a5.075,5.075,0,0,0-.129,3.644c.356.935.709.817,1.025-.055a5.429,5.429,0,0,0,.032-3.174c-.054-.165-.37-.866-.582-.819" transform="translate(-46.286 -93.095)" fill="#0b266f" stroke="#0b266f" stroke-width="0.6"/>
    </g>
  </g>
</svg>
