<svg id="Group_35611" data-name="Group 35611" xmlns="http://www.w3.org/2000/svg" width="38" height="38" viewBox="0 0 38 38">
  <g id="Group_35612" data-name="Group 35612">
    <path id="Path_13389" data-name="Path 13389" d="M129.273,294.85h2.356c.328,0,.839.579.915.905a1.355,1.355,0,0,1-1.325,1.748,39.508,39.508,0,0,1-5.132,0,1.439,1.439,0,0,1-1.443-1.37,38.945,38.945,0,0,1,0-5.22,1.351,1.351,0,0,1,1.807-1.307c.3.087.841.592.841.9v2.36c.142.034.165-.054.248-.124,1.366-1.139,2.562-2.759,3.938-3.922a1.341,1.341,0,0,1,1.8,1.889c-1.162,1.347-2.759,2.545-3.882,3.9-.069.083-.157.107-.124.249" transform="translate(-115.814 -268.345)" fill="#0b266f"/>
    <path id="Path_13390" data-name="Path 13390" d="M295.726,292.863V290.42c0-.181.565-.729.767-.805a1.379,1.379,0,0,1,1.882,1.3,39.725,39.725,0,0,1,0,5.141,1.439,1.439,0,0,1-1.368,1.446c-1.728.166-3.746-.093-5.5-.036a1.351,1.351,0,0,1-.7-2.282,3.986,3.986,0,0,1,.5-.331h2.439c.034-.142-.054-.166-.124-.249-1.123-1.351-2.72-2.549-3.882-3.9a1.341,1.341,0,0,1,1.8-1.889c1.376,1.163,2.573,2.783,3.938,3.922.083.069.107.157.248.124" transform="translate(-269.206 -268.345)" fill="#0b266f"/>
    <path id="Path_13391" data-name="Path 13391" d="M129.254,126.388c-.034.142.054.165.124.249,1.123,1.351,2.72,2.549,3.882,3.9a1.341,1.341,0,0,1-1.8,1.889c-1.376-1.163-2.573-2.783-3.938-3.922-.083-.07-.107-.158-.248-.124v2.36c0,.328-.577.84-.9.917a1.354,1.354,0,0,1-1.745-1.327,38.387,38.387,0,0,1,0-5.22,1.4,1.4,0,0,1,1.364-1.366,38.294,38.294,0,0,1,5.211,0,1.356,1.356,0,0,1,1.325,1.748c-.076.327-.588.905-.915.905Z" transform="translate(-115.796 -114.956)" fill="#0b266f"/>
    <path id="Path_13392" data-name="Path 13392" d="M291.389,126.385a1.394,1.394,0,0,1-.915-.905,1.356,1.356,0,0,1,1.325-1.748,38.181,38.181,0,0,1,5.211,0,1.4,1.4,0,0,1,1.364,1.366,38.485,38.485,0,0,1,0,5.22,1.354,1.354,0,0,1-1.745,1.327c-.326-.076-.9-.589-.9-.917v-2.36c-.142-.034-.165.054-.248.124-1.348,1.125-2.544,2.725-3.889,3.889a1.341,1.341,0,0,1-1.886-1.806c1.161-1.378,2.778-2.577,3.915-3.945.069-.083.157-.107.124-.249-.706-.087-1.687.118-2.356,0" transform="translate(-269.209 -114.952)" fill="#0b266f"/>
  </g>
  <path id="Rectangle_6992" data-name="Rectangle 6992" d="M10,2.2A7.809,7.809,0,0,0,2.2,10V28A7.809,7.809,0,0,0,10,35.8H28A7.809,7.809,0,0,0,35.8,28V10A7.809,7.809,0,0,0,28,2.2H10M10,0H28A10,10,0,0,1,38,10V28A10,10,0,0,1,28,38H10A10,10,0,0,1,0,28V10A10,10,0,0,1,10,0Z" fill="#0b266f"/>
</svg>
