<svg xmlns="http://www.w3.org/2000/svg" width="38.619" height="38.644" viewBox="0 0 38.619 38.644">
  <g id="Group_35606" data-name="Group 35606" transform="translate(-1171.677 -25.662)">
    <path id="Path_13378" data-name="Path 13378" d="M276.439,49.488a.751.751,0,1,1-.751-.752.751.751,0,0,1,.751.752" transform="translate(924.268 -17.906)" fill="#0b266f" stroke="#0b266f" stroke-width="0.6"/>
    <path id="Path_13379" data-name="Path 13379" d="M78.138,20.482l3.948-6.915c.434-1.761-.453-2.493-1.778-3.309-1.2-.736-3.056-1.542-4.091-2.357a.745.745,0,0,1,.664-1.332c2.971,1.923,8.631,3.471,6.333,8.2-1.47,3.027-3.786,6-5.214,9.023-.308.653-.433,1.433-.7,2.122a14.288,14.288,0,0,1-2.63,4.192L74.6,37.6a.761.761,0,0,1-1.421-.245l0-7.7c.058-.412.979-1.268,1.283-1.682a11.84,11.84,0,0,0,2.195-6.26,53.506,53.506,0,0,0,0-6.312.871.871,0,0,0-1.71-.3c-.124.92.213,2.478-.116,3.3a.765.765,0,0,1-1.44-.4c-.211-2.181.263-4.837.005-6.98a.859.859,0,0,0-1.689-.13l-.015,7.181a.761.761,0,0,1-1.482.219l0-8.826C70.148,8.2,68.6,8.071,68.442,9.4l-.007,8.748a.742.742,0,0,1-1.476-.008l-.042-7.3a.862.862,0,0,0-1.637,0l-.029,11.693a.773.773,0,0,1-1.3.629c-.813-1.073-1.43-2.416-2.229-3.481a1.163,1.163,0,0,0-1.466-.519c-1.17.472-.552,1.842-.248,2.682a16.084,16.084,0,0,0,4.055,6.1,12.753,12.753,0,0,1,1.746,1.516l.035,7.907a.748.748,0,0,1-1.48-.006V30.309l-.074-.223a21.483,21.483,0,0,1-3.046-2.959c-2.421-1.554-5.247-2.8-7.62-4.388a4.149,4.149,0,0,1-1.671-1.962c-1.07-2.671,1.076-4.592,2.11-6.824-.488-.081-.964-.211-1.455-.287-.721-.111-2.15.1-1.771-1.128.235-.758,2.021-.377,2.636-.258a5.85,5.85,0,0,0,1.406.3L59.694,4.2a19.338,19.338,0,0,0-4.967-.742.766.766,0,0,1-.033-1.447,8.792,8.792,0,0,1,1.405,0,21.452,21.452,0,0,1,4.364.806c.38-.47.6-1.056,1.01-1.509A4.134,4.134,0,0,1,65.528.133a37.1,37.1,0,0,1,5.6,3.075c.877.642.325,1.77-.691,1.36C69.023,4,67.326,2.642,65.891,1.922c-1.776-.892-2.86-.353-3.841,1.224-2.74,4.408-5.485,9.317-8,13.874-.2.364-.517.825-.668,1.186-1.42,3.379,4.114,4.51,5.979,6.134l.109-.036c-.7-1.486-1.966-3.747-1.124-5.356a2.678,2.678,0,0,1,4.052-.767,15.2,15.2,0,0,1,1.295,1.708V11.023a2.983,2.983,0,0,1,.384-1.174,2.41,2.41,0,0,1,2.949-.941,2.331,2.331,0,0,1,4.594,0,2.4,2.4,0,0,1,3.125,1.284,4.885,4.885,0,0,1,.209.9v1.966a2.4,2.4,0,0,1,2.771.9,3.83,3.83,0,0,1,.414.921Z" transform="translate(1126.251 26)" fill="#0b266f" stroke="#0b266f" stroke-width="0.6"/>
    <path id="Path_13380" data-name="Path 13380" d="M5.244,73.144a21.805,21.805,0,0,1,2.648-.025c.687.044,1.706.2,1.311,1.171-.262.646-1.258.323-1.756.313a16.468,16.468,0,0,0-4.442.454,21.6,21.6,0,0,1-2.081.664c-.947.073-1.193-.983-.332-1.448a15.266,15.266,0,0,1,4.651-1.128" transform="translate(1171.942 -39.846)" fill="#0b266f" stroke="#0b266f" stroke-width="0.6"/>
    <path id="Path_13381" data-name="Path 13381" d="M5.26,22.485a1.469,1.469,0,0,1,.612.011.783.783,0,0,1,.05,1.393A23.508,23.508,0,0,0,.937,25.278a.757.757,0,0,1-.695-1.29,13.172,13.172,0,0,1,2.589-.968,15,15,0,0,1,2.429-.534" transform="translate(1172 5.768)" fill="#0b266f" stroke="#0b266f" stroke-width="0.6"/>
    <path id="Path_13382" data-name="Path 13382" d="M2.075,128.081a.757.757,0,0,1,.467,1.435,7.193,7.193,0,0,1-1.725.687.775.775,0,0,1-.535-1.17,5.02,5.02,0,0,1,1.793-.952" transform="translate(1171.849 -89.373)" fill="#0b266f" stroke="#0b266f" stroke-width="0.6"/>
  </g>
</svg>
