<svg xmlns="http://www.w3.org/2000/svg" width="38.777" height="38.623" viewBox="0 0 38.777 38.623">
  <g id="Group_35610" data-name="Group 35610" transform="translate(0.439 0.323)">
    <g id="Group_35609" data-name="Group 35609" transform="translate(0 0)">
      <path id="Path_13383" data-name="Path 13383" d="M73.216,8.469a9.506,9.506,0,0,1,3.777,1.814c.537.407,1,.9,1.571,1.294a10.466,10.466,0,0,0,13.5-1.452c.124-.132.807-.922.734-1.031a19.564,19.564,0,0,0-3.328-1.9L86.759,9.4c-.711.321-1.311-.337-1.025-1.063a14.173,14.173,0,0,1,1.651-1.441c.1-.092.24-.193.221-.347-.781-.092-1.552-.313-2.337-.384a16.333,16.333,0,0,0-6.009.679.808.808,0,0,1-.688-1.088c.147-.511,1.639-.777,2.12-.877.543-.113,1.1-.157,1.647-.254l-.552-.541a.751.751,0,0,1,.029-.963c.812-1.007,2.023,1.082,2.731,1.407a16.773,16.773,0,0,0,2.184.273,16.03,16.03,0,0,1,3.617,1.1c.555.243,1.078.567,1.634.8A10.346,10.346,0,0,0,84.8,1.725a10.831,10.831,0,0,0-4.5.214c-.51.122-1.729.777-1.892-.2-.145-.871.562-1.005,1.2-1.208A11.985,11.985,0,0,1,93.8,6.776c.258.518.473,1.339.743,1.767.245.388,1.2,1.138,1.594,1.577a12.054,12.054,0,0,1,1.129,1.444.779.779,0,0,1-.979,1.091c-.268-.1-.836-.993-1.078-1.266-.378-.425-.805-.807-1.188-1.228a13.767,13.767,0,0,1-3.233,2.952,11.82,11.82,0,0,1-13-.2,30.565,30.565,0,0,0-3.015-2.257A15.055,15.055,0,0,0,72.043,9.8c-.936-.3-.523-1.187-.272-1.869a10.456,10.456,0,0,1,1.671-2.958.775.775,0,0,1,1.179.618c.022.541-1.386,2.122-1.4,2.876" transform="translate(-64.381 0)" fill="#0b266f" stroke="#0b266f" stroke-width="0.6"/>
      <path id="Path_13384" data-name="Path 13384" d="M113.171,24.018a.753.753,0,1,1-.752-.78.767.767,0,0,1,.752.78" transform="translate(-100.603 -20.851)" fill="#0b266f" stroke="#0b266f" stroke-width="0.6"/>
      <path id="Path_13385" data-name="Path 13385" d="M4.26,121.844a.774.774,0,0,1,1.311.407,10.308,10.308,0,0,1-.612,1.972,9.058,9.058,0,0,0-.319,1.368,12.708,12.708,0,0,1,5.375,2.275,12.891,12.891,0,0,1,4.977,11.525c-.178,1.815-.526,2.961-.083,4.855.3,1.288,1.1,2.046-.717,2.39C4.309,148.51-3.3,137.461,1.454,128.278c.4-.767,1.284-1.718,1.555-2.309.2-.434.36-1.69.54-2.285a9.465,9.465,0,0,1,.71-1.84M2.68,129.126a11.789,11.789,0,0,0-.929,7.459,10.67,10.67,0,0,0,11.761,8.575c.092-.064.053-.114.042-.2-.071-.5-.267-1.045-.333-1.584-.264-2.183.454-4.2.278-6.44-.379-4.843-4.414-9.27-9.107-9.729a15.542,15.542,0,0,0,.085,4.048c.913.437,2.061.684,2.949,1.134a.807.807,0,0,1-.185,1.566c-.567,0-1.771-.807-2.412-.873a16.1,16.1,0,0,0,2.9,5.764c.252.317,1.462,1.526,1.522,1.728.191.632-.234,1.213-.877,1.066-.438-.1-1.572-1.528-1.905-1.949a3.861,3.861,0,0,1-.524-.8l-.146.045c.108,1.407-1.66,1.625-1.55.156.041-.546.477-1.8.421-2.223-.04-.3-.766-1.709-.931-2.189a16.364,16.364,0,0,1-.91-4.9Z" transform="translate(-0.001 -109.123)" fill="#0b266f" stroke="#0b266f" stroke-width="0.6"/>
      <path id="Path_13387" data-name="Path 13387" d="M205.529,155.639a.867.867,0,0,1,.878.212,13.088,13.088,0,0,1,2.816,5.462c1.876,8.055-4.117,15.789-12.095,15.613-.617-.014-1.514-.276-2.072-.236a13.3,13.3,0,0,0-1.491.458,12.324,12.324,0,0,1-2.365.471.794.794,0,0,1-.044-1.584c.364-.09,2.764-.42,2.821-.692a12.421,12.421,0,0,1-.5-1.555,12.857,12.857,0,0,1,4.734-13.349c1.983-1.47,4.269-1.738,6.076-3.467a14.214,14.214,0,0,1,1.238-1.331m-7.692,19.667c8.564-.174,13.32-10.8,7.974-17.76a9.621,9.621,0,0,1-3.028,2.319c-.756.365-1.579.587-2.326.972a11.214,11.214,0,0,0-5.032,14.007,19.946,19.946,0,0,0,3.368-2.087l-.558-3.423a.768.768,0,0,1,1.343-.561c.34.461.318,2.076.521,2.689a15.451,15.451,0,0,0,3.431-5.594,19,19,0,0,1,.611-2.057.756.756,0,0,1,1.4.328,6.649,6.649,0,0,1-.338,1.462c-.21.714-.51,1.4-.761,2.094.665-.414,1.74-.313,1.54.713-.07.36-.273.444-.557.576a21.307,21.307,0,0,0-2.076.733c-.236.209-.964,1.462-1.283,1.86a17.33,17.33,0,0,1-3.048,2.915Z" transform="translate(-171.569 -139.619)" fill="#0b266f" stroke="#0b266f" stroke-width="0.6"/>
    </g>
  </g>
</svg>
