<svg xmlns="http://www.w3.org/2000/svg" width="26" height="20" viewBox="0 0 26 20">
  <path id="youtube-play" d="M10.315,13.883l7.022-3.968L10.315,5.9v7.984ZM13,.2q2.437,0,4.708.071t3.329.151L22.1.486l.247.024a2.959,2.959,0,0,1,.334.047q.1.024.341.071a1.863,1.863,0,0,1,.414.127q.174.08.407.206a2.7,2.7,0,0,1,.45.31,3.713,3.713,0,0,1,.421.42,2.94,2.94,0,0,1,.225.294,5.615,5.615,0,0,1,.421.928,6.439,6.439,0,0,1,.384,1.6q.116,1.016.181,2.166T26,8.487v2.794a36.706,36.706,0,0,1-.261,4.6,6.847,6.847,0,0,1-.363,1.579,4.143,4.143,0,0,1-.464.976l-.2.27a3.554,3.554,0,0,1-.421.42,2.447,2.447,0,0,1-.45.3q-.232.119-.407.2a1.938,1.938,0,0,1-.414.127l-.348.071q-.109.023-.334.047t-.239.024q-3.641.3-9.1.3-3-.032-5.216-.1t-2.908-.119l-.711-.063-.522-.063a6.273,6.273,0,0,1-.791-.159,4.286,4.286,0,0,1-.74-.333,2.879,2.879,0,0,1-1.044-.945,5.615,5.615,0,0,1-.421-.928,6.439,6.439,0,0,1-.384-1.6Q.145,14.867.08,13.717T0,11.915V9.121a36.706,36.706,0,0,1,.261-4.6A6.847,6.847,0,0,1,.624,2.939a4.143,4.143,0,0,1,.464-.976l.2-.27a3.554,3.554,0,0,1,.421-.42,2.819,2.819,0,0,1,.449-.31q.231-.127.407-.206A1.955,1.955,0,0,1,2.982.629Q3.22.581,3.322.558A3.317,3.317,0,0,1,3.656.511Q3.887.486,3.9.487,7.544.2,13,.2Z" transform="translate(0.001 -0.201)" fill="#0b266f"/>
</svg>
